<svg width="54" height="53" viewBox="0 0 54 53" fill="none" xmlns="http://www.w3.org/2000/svg">
<g filter="url(#filter0_d_82_562)">
<rect x="6.3241" y="4.06067" width="40.6576" height="40.6576" rx="20.3288" fill="white"/>
<rect x="6.3241" y="4.06067" width="40.6576" height="40.6576" rx="20.3288" stroke="#F5F6F7" stroke-width="2.03288"/>
<path fill-rule="evenodd" clip-rule="evenodd" d="M29.4476 18.6461C29.2703 18.4685 29.0297 18.3687 28.7788 18.3687C28.5278 18.3687 28.2872 18.4685 28.1099 18.6461L23.7555 23.0006C23.3855 23.3705 23.3855 23.9682 23.7555 24.3382L28.1099 28.6926C28.4799 29.0626 29.0776 29.0626 29.4476 28.6926C29.8176 28.3226 29.8176 27.725 29.4476 27.355L25.7667 23.6646L29.4476 19.9838C29.8176 19.6138 29.8081 19.0066 29.4476 18.6461Z" fill="#C3CAD9"/>
</g>
<defs>
<filter id="filter0_d_82_562" x="0.225415" y="-0.00513172" width="52.855" height="52.855" filterUnits="userSpaceOnUse" color-interpolation-filters="sRGB">
<feFlood flood-opacity="0" result="BackgroundImageFix"/>
<feColorMatrix in="SourceAlpha" type="matrix" values="0 0 0 0 0 0 0 0 0 0 0 0 0 0 0 0 0 0 127 0" result="hardAlpha"/>
<feOffset dy="2.03288"/>
<feGaussianBlur stdDeviation="2.5411"/>
<feColorMatrix type="matrix" values="0 0 0 0 0.14902 0 0 0 0 0.2 0 0 0 0 0.301961 0 0 0 0.03 0"/>
<feBlend mode="normal" in2="BackgroundImageFix" result="effect1_dropShadow_82_562"/>
<feBlend mode="normal" in="SourceGraphic" in2="effect1_dropShadow_82_562" result="shape"/>
</filter>
</defs>
</svg>
